<?xml version="1.0" encoding="utf-8"?>
<!-- Generator: Adobe Illustrator 25.0.0, SVG Export Plug-In . SVG Version: 6.00 Build 0)  -->
<svg version="1.1" id="Layer_1" xmlns="http://www.w3.org/2000/svg" xmlns:xlink="http://www.w3.org/1999/xlink" x="0px" y="0px"
	 viewBox="0 0 2500 471" style="enable-background:new 0 0 2500 471;" xml:space="preserve">
<style type="text/css">
	.st0{fill:#FFFFFF;}
</style>
<path class="st0" d="M150.4,224.8c-0.01-39.61,32.09-71.72,71.69-71.73c0.01,0,0.03,0,0.04,0c39.62,0,71.73,32.12,71.73,71.73
	s-32.12,71.73-71.73,71.73S150.4,264.41,150.4,224.8z M437.37,224.15c0.15,59.66-23.33,116.95-65.32,159.32
	c-41.86,42.25-98.86,66.05-158.34,66.12H74.3c-2.9,0.03-5.66-1.24-7.51-3.47c-1.93-2.22-2.8-5.16-2.39-8.07
	c8.69-53.91,54.96-93.55,109.3-93.64h40c61.8-0.36,113.16-48,118.46-109.88c0.29-3.25,0.42-6.49,0.42-10.96c0-2.53,0-4.84-0.33-7.04
	c-4.2-62.41-56.94-111.28-120-111.28h-38.42c-29.37,0.09-57.55-11.58-78.26-32.41c-16.45-16.68-27.29-38.07-31-61.19
	c-0.46-2.9,0.34-5.86,2.2-8.14c1.91-2.22,4.7-3.5,7.61-3.5h137.08C335.69,0,437.02,100.51,437.37,224.15z M1644.37,360.49
	c17.92,15.21,29.81,36.32,33.54,59.53c0.43,2.58-0.3,5.21-2,7.19c-1.65,2.01-4.1,3.2-6.69,3.25h-124.53
	c-53.07-0.09-103.91-21.3-141.31-58.95c-37.46-37.71-58.44-88.73-58.35-141.88c0.3-110.1,90.78-199.7,201.67-199.7h122.51
	c4.86,0.02,8.77,3.97,8.75,8.83c0,0.46-0.04,0.91-0.11,1.36c-3.32,20.57-12.99,39.58-27.63,54.39c-18.48,18.62-43.64,29.06-69.87,29
	h-34.3c-56.1-0.2-102.87,43.01-107.23,99.11c-0.26,2.1-0.26,4.21-0.26,6.48c-0.06,3.25,0.05,6.49,0.32,9.73
	c4.73,55.17,50.62,97.63,105.85,97.9h35.58c23.5,0.03,46.21,8.45,64.05,23.75H1644.37z M2440.61,29.12c7.44,0,5.28,5.26,5.28,5.26
	l-146.97,383.49c-1.84,4.78-6.43,7.94-11.55,7.95h-64.11c-5.13-0.01-9.72-3.19-11.55-7.98L2065.54,34.21
	c-0.88-1.72-0.2-3.84,1.52-4.72c0.58-0.3,1.23-0.43,1.88-0.38h88.42c4.04-0.29,7.68,2.39,8.6,6.33l89.16,266.81
	c0,0,82.08-245.83,89.54-266.66c1.1-4.21,5.13-6.97,9.45-6.47L2440.61,29.12L2440.61,29.12z M504.34,35.32
	c0-3.41,2.76-6.18,6.17-6.19h81.75c3.41,0.02,6.17,2.78,6.18,6.19v384.34c-0.01,3.36-2.69,6.1-6.05,6.19h-81.88
	c-3.41-0.01-6.17-2.78-6.17-6.19V35.32L504.34,35.32z M2023.5,28.82v-0.13c3.4,0.02,6.15,2.79,6.17,6.19v70.11
	c-0.01,3.35-2.67,6.08-6.01,6.19h-101.71v308.18c0.01,3.41-2.74,6.18-6.15,6.19c-0.01,0-0.02,0-0.03,0h-81.88
	c-3.41-0.01-6.17-2.78-6.17-6.19V111.19h-101.33c-3.41-0.02-6.17-2.78-6.18-6.19V35.02c0.02-3.41,2.77-6.17,6.18-6.19L2023.5,28.82
	L2023.5,28.82z M1300.42,111.48H1157.5v80.1h101.58c3.4,0.02,6.16,2.78,6.17,6.19v56.74c-0.02,3.41-2.77,6.17-6.17,6.19H1157.5
	v82.32h142.34c3.79,0.02,6.85,3.1,6.85,6.89v68.57c0,3.8-3.07,6.87-6.85,6.87h-230.15c-3.41-0.01-6.17-2.78-6.17-6.19V35.74
	c-0.23-1.86,0.36-3.73,1.62-5.13c0.29-0.46,1.3-1.5,4.37-1.5h230.91c3.4,0.02,6.16,2.79,6.17,6.19v69.98
	C1306.57,108.69,1303.82,111.45,1300.42,111.48L1300.42,111.48z M1002.16,416.8l0.1-0.1c1.61,3.03,0.45,6.79-2.58,8.4
	c-0.86,0.46-1.82,0.7-2.79,0.72h-89.38c-3.45-0.02-6.62-1.94-8.22-5l-99.9-191.04c-2.73-5.12-0.78-11.49,4.34-14.22
	c1.53-0.81,3.24-1.24,4.98-1.23h23.23c3.66,0,6.56-0.1,9.22-0.29c2.65-0.2,5.46-0.45,8.69-0.81c6.94-0.79,13.64-3,19.68-6.49
	c5.63-3.3,10.58-7.63,14.59-12.78c3.9-5.1,6.91-10.83,8.89-16.93c2.02-6.16,3.04-12.59,3.04-19.07c0.02-6.35-1.07-12.65-3.24-18.62
	c-2.21-6.06-5.39-11.72-9.41-16.76c-4.1-5.16-9.08-9.55-14.72-12.98c-5.87-3.56-12.41-5.9-19.21-6.87l-73.89-0.4v317.33
	c-0.02,3.41-2.77,6.17-6.17,6.19h-81.88c-3.41-0.02-6.17-2.78-6.18-6.19V35.31c0.02-3.41,2.77-6.17,6.18-6.19h177.31
	c17.39-0.14,34.63,3.31,50.62,10.13c15.31,6.53,29.27,15.85,41.15,27.5c11.7,11.69,21.09,25.5,27.65,40.68
	c6.72,15.62,10.15,32.46,10.06,49.46c0.04,11.46-1.58,22.87-4.82,33.87c-6.32,21.23-18.09,40.45-34.13,55.73
	c-7.9,7.56-16.66,14.16-26.11,19.66l-5.06,2.85L1002.16,416.8L1002.16,416.8z"/>
</svg>
