<?xml version="1.0" encoding="utf-8"?>
<!-- Generator: Adobe Illustrator 25.0.0, SVG Export Plug-In . SVG Version: 6.00 Build 0)  -->
<svg version="1.1" id="Layer_1" xmlns="http://www.w3.org/2000/svg" xmlns:xlink="http://www.w3.org/1999/xlink" x="0px" y="0px"
	 viewBox="0 0 841.89 332.28" style="enable-background:new 0 0 841.89 332.28;" xml:space="preserve">
<style type="text/css">
	.st0{fill:#FFFFFF;}
</style>
<g>
	<g>
		<g>
			<polygon class="st0" points="116.62,139.2 82.19,139.2 82.19,101.64 53.71,101.64 53.71,201.33 82.19,201.33 82.19,164.42 
				116.62,164.42 116.62,201.33 145.1,201.33 145.1,101.64 116.62,101.64 			"/>
			<path class="st0" d="M206.06,158.5c0,12.45,0.09,12.97,0,14.8c0,2.26-3.2,7.58-10.35,7.58c-6.57,0-9.68-5.4-9.72-7.07
				c-0.09-3.5,0-8.39,0-12.59l0.13-29.01h-26.67v41.52c0,7.23-0.33,13.2,1.56,17.42c1.94,4.34,6.03,12.78,26.08,12.78
				c5.14,0,8.32-1.11,12.94-3.5c2.48-1.29,3.85-2.49,5.84-4.3v6.63h27.06v-70.55h-26.88V158.5z"/>
			<path class="st0" d="M291.33,137.46c-5.49-5.1-12.06-7.68-19.59-7.68c-9.35,0-17.29,3.5-23.58,10.41
				c-6.23,6.84-8.89,14.8-9.39,22.12c-0.69,10.1,2.39,18.75,7.11,25.63c6.13,8.89,14.58,13.39,25.12,13.39
				c7.33,0,13.73-2.54,19.12-7.58v3.91c0,5.17-2.8,10.32-14.25,11.33c-11.46,1.01-21.22-7.1-21.22-7.1l-11.87,17.23
				c0,0,11.39,11.52,34.69,11.52c24.78,0,36.58-15.06,38.12-19.65c1.51-4.52,2.24-11.03,2.24-19.9v-60l-26.47,0.32V137.46z
				 M280.19,152.64c7.45,0,12.21,5.84,12.21,11.58c0,5.74-3.41,12.81-11.19,12.81s-13.24-4.15-13.24-11.45
				C267.97,158.29,272.74,152.64,280.19,152.64z"/>
			<path class="st0" d="M377.47,128.72c-7.32,0-14.06,2.44-19.76,7.27v-30.65h-27.14L330,201.33h26l-0.1-28.34
				c0-5.74-0.44-19.37,12.5-19.37c9.52,0,10.02,9.1,10.02,17.4l0.1,30.31h25.99v-38.62c0-6.72,0.02-11.81-0.68-15.1
				C403.12,144.21,401.5,128.72,377.47,128.72z"/>
			<path class="st0" d="M450.46,129.48c-12.65,0-23.94,6.03-28.03,10.51s-10.9,12.07-10.9,24.63c0,10.51,2.55,18.02,7.61,25.01
				c6.5,8.84,17.68,14.69,31.02,14.69c8.42,0,21.61-1.36,33.09-9.93c-6.91-9.73-11.58-16.25-11.58-16.25s-5.13,5.76-18.51,5.44
				c-9.43,0-13.37-6.33-13.82-10.12H487c0,0,0.64-20.34-5.5-28.81C474.05,134.37,461.91,129.48,450.46,129.48z M439.35,158.09
				c0.34-1.89,1.95-9.05,11.64-9.05s11.33,7.3,11.64,9.05H439.35z"/>
			<path class="st0" d="M549.29,161.99c-4.6-2.99-10.5-4.08-21.31-5.69c-17.72-2.64-10.84-9.66-1.92-9.01
				c12.38,0.91,19.3,7.62,19.3,7.62l9.93-15.62c0,0-17.45-10.37-30.88-10.37c-13.43,0-35.33,3.87-32.27,29.61
				c0.9,4.6,3.06,8.8,6.58,11.2c4.43,3.02,9.97,5.61,30.3,5.95c4.38,0.44,3.86,5.22,3.35,6.38c-1.39,3.14-10.36,2.32-14.59,1.23
				c-9.81-2.54-17.01-8.38-17.01-8.38l-10.8,17.08c0,0,13.65,10.97,36.94,10.97c11.4,0,25.77-2.29,29.93-16.08
				C560.97,173.08,553.89,164.98,549.29,161.99z"/>
		</g>
		<path class="st0" d="M568.66,201.67v-99.69h19.59l45.27,66.57v-66.57h18.7v99.69h-20.2l-44.66-65.01v65.01H568.66z"/>
		<path class="st0" d="M732.51,193.52c-6.57,6.57-20.45,9.78-28.77,9.78c-13.17,0-22.91-4.1-29.23-12.31
			c-4.99-6.57-7.49-14.87-7.49-24.89c0-11.97,3.28-21.34,9.84-28.12c6.56-6.78,14.85-10.17,24.88-10.17
			c11.26,0,20.15,3.55,26.66,10.64c6.51,7.1,9.63,17.96,9.34,32.61h-50.19c0.14,5.67,1.76,10.08,4.85,13.23
			c3.09,3.15,6.94,4.73,11.55,4.73c3.14,0,14.91-1.27,20.53-7.18C726.38,185.13,731.12,191.77,732.51,193.52z M717.86,159.37
			c-0.14-5.53-1.64-9.73-4.49-12.61c-2.85-2.88-6.32-4.32-10.41-4.32c-4.37,0-7.99,1.52-10.84,4.56c-2.85,3.04-4.25,7.16-4.21,12.38
			H717.86z"/>
		<path class="st0" d="M783.37,129.45v16.9h-13.06v27.43c0,5.89,0.12,9.33,0.37,10.3c0.25,0.98,1.53,7.67,12.92,2.03l4.57,12.85
			c-5.74,3.6-12.73,4.33-18.35,4.33c-3.45,0-6.55-0.58-9.32-1.73c-2.77-1.16-4.79-2.65-6.09-4.49c-1.29-1.84-2.19-4.32-2.69-7.45
			c-0.41-2.22-0.61-6.71-0.61-13.46v-29.81h-8.77v-16.9h8.77v-17.83h19.18v17.83H783.37z"/>
	</g>
</g>
</svg>
